<?xml version="1.0" encoding="utf-8" standalone="no"?>
<!DOCTYPE svg PUBLIC "-//W3C//DTD SVG 1.1//EN"
  "http://www.w3.org/Graphics/SVG/1.1/DTD/svg11.dtd">
<svg xmlns:xlink="http://www.w3.org/1999/xlink" width="432pt" height="288pt" viewBox="0 0 432 288" xmlns="http://www.w3.org/2000/svg" version="1.1">
 <metadata>
  <rdf:RDF xmlns:dc="http://purl.org/dc/elements/1.1/" xmlns:cc="http://creativecommons.org/ns#" xmlns:rdf="http://www.w3.org/1999/02/22-rdf-syntax-ns#">
   <cc:Work>
    <dc:type rdf:resource="http://purl.org/dc/dcmitype/StillImage"/>
    <dc:date>2023-05-15T23:43:11.644726</dc:date>
    <dc:format>image/svg+xml</dc:format>
    <dc:creator>
     <cc:Agent>
      <dc:title>Matplotlib v3.5.1, https://matplotlib.org/</dc:title>
     </cc:Agent>
    </dc:creator>
   </cc:Work>
  </rdf:RDF>
 </metadata>
 <defs>
  <style type="text/css">*{stroke-linejoin: round; stroke-linecap: butt}</style>
 </defs>
 <g id="figure_1">
  <g id="patch_1">
   <path d="M 0 288 
L 432 288 
L 432 0 
L 0 0 
L 0 288 
z
" style="fill: none"/>
  </g>
  <g id="axes_1">
   <g id="patch_2">
    <path d="M 54 252 
L 388.8 252 
L 388.8 34.56 
L 54 34.56 
z
" style="fill: #ffffff"/>
   </g>
   <g id="matplotlib.axis_1">
    <g id="xtick_1">
     <g id="line2d_1">
      <defs>
       <path id="m6daff80305" d="M 0 0 
L 0 3.5 
" style="stroke: #000000; stroke-width: 0.8"/>
      </defs>
      <g>
       <use xlink:href="#m6daff80305" x="105.024289" y="252" style="stroke: #000000; stroke-width: 0.8"/>
      </g>
     </g>
     <g id="text_1">
      <!-- 0.05 -->
      <g transform="translate(93.891477 266.598437)scale(0.1 -0.1)">
       <defs>
        <path id="DejaVuSans-30" d="M 2034 4250 
Q 1547 4250 1301 3770 
Q 1056 3291 1056 2328 
Q 1056 1369 1301 889 
Q 1547 409 2034 409 
Q 2525 409 2770 889 
Q 3016 1369 3016 2328 
Q 3016 3291 2770 3770 
Q 2525 4250 2034 4250 
z
M 2034 4750 
Q 2819 4750 3233 4129 
Q 3647 3509 3647 2328 
Q 3647 1150 3233 529 
Q 2819 -91 2034 -91 
Q 1250 -91 836 529 
Q 422 1150 422 2328 
Q 422 3509 836 4129 
Q 1250 4750 2034 4750 
z
" transform="scale(0.015625)"/>
        <path id="DejaVuSans-2e" d="M 684 794 
L 1344 794 
L 1344 0 
L 684 0 
L 684 794 
z
" transform="scale(0.015625)"/>
        <path id="DejaVuSans-35" d="M 691 4666 
L 3169 4666 
L 3169 4134 
L 1269 4134 
L 1269 2991 
Q 1406 3038 1543 3061 
Q 1681 3084 1819 3084 
Q 2600 3084 3056 2656 
Q 3513 2228 3513 1497 
Q 3513 744 3044 326 
Q 2575 -91 1722 -91 
Q 1428 -91 1123 -41 
Q 819 9 494 109 
L 494 744 
Q 775 591 1075 516 
Q 1375 441 1709 441 
Q 2250 441 2565 725 
Q 2881 1009 2881 1497 
Q 2881 1984 2565 2268 
Q 2250 2553 1709 2553 
Q 1456 2553 1204 2497 
Q 953 2441 691 2322 
L 691 4666 
z
" transform="scale(0.015625)"/>
       </defs>
       <use xlink:href="#DejaVuSans-30"/>
       <use xlink:href="#DejaVuSans-2e" x="63.623047"/>
       <use xlink:href="#DejaVuSans-30" x="95.410156"/>
       <use xlink:href="#DejaVuSans-35" x="159.033203"/>
      </g>
     </g>
    </g>
    <g id="xtick_2">
     <g id="line2d_2">
      <g>
       <use xlink:href="#m6daff80305" x="160.029619" y="252" style="stroke: #000000; stroke-width: 0.8"/>
      </g>
     </g>
     <g id="text_2">
      <!-- 0.10 -->
      <g transform="translate(148.896806 266.598437)scale(0.1 -0.1)">
       <defs>
        <path id="DejaVuSans-31" d="M 794 531 
L 1825 531 
L 1825 4091 
L 703 3866 
L 703 4441 
L 1819 4666 
L 2450 4666 
L 2450 531 
L 3481 531 
L 3481 0 
L 794 0 
L 794 531 
z
" transform="scale(0.015625)"/>
       </defs>
       <use xlink:href="#DejaVuSans-30"/>
       <use xlink:href="#DejaVuSans-2e" x="63.623047"/>
       <use xlink:href="#DejaVuSans-31" x="95.410156"/>
       <use xlink:href="#DejaVuSans-30" x="159.033203"/>
      </g>
     </g>
    </g>
    <g id="xtick_3">
     <g id="line2d_3">
      <g>
       <use xlink:href="#m6daff80305" x="215.034948" y="252" style="stroke: #000000; stroke-width: 0.8"/>
      </g>
     </g>
     <g id="text_3">
      <!-- 0.15 -->
      <g transform="translate(203.902136 266.598437)scale(0.1 -0.1)">
       <use xlink:href="#DejaVuSans-30"/>
       <use xlink:href="#DejaVuSans-2e" x="63.623047"/>
       <use xlink:href="#DejaVuSans-31" x="95.410156"/>
       <use xlink:href="#DejaVuSans-35" x="159.033203"/>
      </g>
     </g>
    </g>
    <g id="xtick_4">
     <g id="line2d_4">
      <g>
       <use xlink:href="#m6daff80305" x="270.040278" y="252" style="stroke: #000000; stroke-width: 0.8"/>
      </g>
     </g>
     <g id="text_4">
      <!-- 0.20 -->
      <g transform="translate(258.907465 266.598437)scale(0.1 -0.1)">
       <defs>
        <path id="DejaVuSans-32" d="M 1228 531 
L 3431 531 
L 3431 0 
L 469 0 
L 469 531 
Q 828 903 1448 1529 
Q 2069 2156 2228 2338 
Q 2531 2678 2651 2914 
Q 2772 3150 2772 3378 
Q 2772 3750 2511 3984 
Q 2250 4219 1831 4219 
Q 1534 4219 1204 4116 
Q 875 4013 500 3803 
L 500 4441 
Q 881 4594 1212 4672 
Q 1544 4750 1819 4750 
Q 2544 4750 2975 4387 
Q 3406 4025 3406 3419 
Q 3406 3131 3298 2873 
Q 3191 2616 2906 2266 
Q 2828 2175 2409 1742 
Q 1991 1309 1228 531 
z
" transform="scale(0.015625)"/>
       </defs>
       <use xlink:href="#DejaVuSans-30"/>
       <use xlink:href="#DejaVuSans-2e" x="63.623047"/>
       <use xlink:href="#DejaVuSans-32" x="95.410156"/>
       <use xlink:href="#DejaVuSans-30" x="159.033203"/>
      </g>
     </g>
    </g>
    <g id="xtick_5">
     <g id="line2d_5">
      <g>
       <use xlink:href="#m6daff80305" x="325.045607" y="252" style="stroke: #000000; stroke-width: 0.8"/>
      </g>
     </g>
     <g id="text_5">
      <!-- 0.25 -->
      <g transform="translate(313.912795 266.598437)scale(0.1 -0.1)">
       <use xlink:href="#DejaVuSans-30"/>
       <use xlink:href="#DejaVuSans-2e" x="63.623047"/>
       <use xlink:href="#DejaVuSans-32" x="95.410156"/>
       <use xlink:href="#DejaVuSans-35" x="159.033203"/>
      </g>
     </g>
    </g>
    <g id="xtick_6">
     <g id="line2d_6">
      <g>
       <use xlink:href="#m6daff80305" x="380.050936" y="252" style="stroke: #000000; stroke-width: 0.8"/>
      </g>
     </g>
     <g id="text_6">
      <!-- 0.30 -->
      <g transform="translate(368.918124 266.598437)scale(0.1 -0.1)">
       <defs>
        <path id="DejaVuSans-33" d="M 2597 2516 
Q 3050 2419 3304 2112 
Q 3559 1806 3559 1356 
Q 3559 666 3084 287 
Q 2609 -91 1734 -91 
Q 1441 -91 1130 -33 
Q 819 25 488 141 
L 488 750 
Q 750 597 1062 519 
Q 1375 441 1716 441 
Q 2309 441 2620 675 
Q 2931 909 2931 1356 
Q 2931 1769 2642 2001 
Q 2353 2234 1838 2234 
L 1294 2234 
L 1294 2753 
L 1863 2753 
Q 2328 2753 2575 2939 
Q 2822 3125 2822 3475 
Q 2822 3834 2567 4026 
Q 2313 4219 1838 4219 
Q 1578 4219 1281 4162 
Q 984 4106 628 3988 
L 628 4550 
Q 988 4650 1302 4700 
Q 1616 4750 1894 4750 
Q 2613 4750 3031 4423 
Q 3450 4097 3450 3541 
Q 3450 3153 3228 2886 
Q 3006 2619 2597 2516 
z
" transform="scale(0.015625)"/>
       </defs>
       <use xlink:href="#DejaVuSans-30"/>
       <use xlink:href="#DejaVuSans-2e" x="63.623047"/>
       <use xlink:href="#DejaVuSans-33" x="95.410156"/>
       <use xlink:href="#DejaVuSans-30" x="159.033203"/>
      </g>
     </g>
    </g>
    <g id="text_7">
     <!-- $C_D$ -->
     <g transform="translate(215.05 280.276563)scale(0.1 -0.1)">
      <defs>
       <path id="DejaVuSans-Oblique-43" d="M 4447 4306 
L 4319 3641 
Q 4019 3944 3683 4091 
Q 3347 4238 2956 4238 
Q 2422 4238 2017 3981 
Q 1613 3725 1319 3200 
Q 1131 2863 1032 2486 
Q 934 2109 934 1728 
Q 934 1091 1264 756 
Q 1594 422 2222 422 
Q 2656 422 3056 561 
Q 3456 700 3834 978 
L 3688 231 
Q 3316 72 2936 -9 
Q 2556 -91 2175 -91 
Q 1278 -91 773 396 
Q 269 884 269 1753 
Q 269 2309 461 2846 
Q 653 3384 1013 3828 
Q 1394 4300 1883 4525 
Q 2372 4750 3022 4750 
Q 3422 4750 3780 4639 
Q 4138 4528 4447 4306 
z
" transform="scale(0.015625)"/>
       <path id="DejaVuSans-Oblique-44" d="M 1081 4666 
L 2438 4666 
Q 3519 4666 4070 4208 
Q 4622 3750 4622 2847 
Q 4622 2250 4412 1698 
Q 4203 1147 3834 769 
Q 3463 381 2891 190 
Q 2319 0 1538 0 
L 172 0 
L 1081 4666 
z
M 1613 4147 
L 909 519 
L 1734 519 
Q 2794 519 3375 1128 
Q 3956 1738 3956 2847 
Q 3956 3519 3581 3833 
Q 3206 4147 2406 4147 
L 1613 4147 
z
" transform="scale(0.015625)"/>
      </defs>
      <use xlink:href="#DejaVuSans-Oblique-43" transform="translate(0 0.78125)"/>
      <use xlink:href="#DejaVuSans-Oblique-44" transform="translate(69.824219 -15.625)scale(0.7)"/>
     </g>
    </g>
   </g>
   <g id="matplotlib.axis_2">
    <g id="ytick_1">
     <g id="line2d_7">
      <defs>
       <path id="m83ce94031e" d="M 0 0 
L -3.5 0 
" style="stroke: #000000; stroke-width: 0.8"/>
      </defs>
      <g>
       <use xlink:href="#m83ce94031e" x="54" y="245.414773" style="stroke: #000000; stroke-width: 0.8"/>
      </g>
     </g>
     <g id="text_8">
      <!-- −1 -->
      <g transform="translate(32.257812 249.213992)scale(0.1 -0.1)">
       <defs>
        <path id="DejaVuSans-2212" d="M 678 2272 
L 4684 2272 
L 4684 1741 
L 678 1741 
L 678 2272 
z
" transform="scale(0.015625)"/>
       </defs>
       <use xlink:href="#DejaVuSans-2212"/>
       <use xlink:href="#DejaVuSans-31" x="83.789062"/>
      </g>
     </g>
    </g>
    <g id="ytick_2">
     <g id="line2d_8">
      <g>
       <use xlink:href="#m83ce94031e" x="54" y="199.042337" style="stroke: #000000; stroke-width: 0.8"/>
      </g>
     </g>
     <g id="text_9">
      <!-- 0 -->
      <g transform="translate(40.6375 202.841556)scale(0.1 -0.1)">
       <use xlink:href="#DejaVuSans-30"/>
      </g>
     </g>
    </g>
    <g id="ytick_3">
     <g id="line2d_9">
      <g>
       <use xlink:href="#m83ce94031e" x="54" y="152.669901" style="stroke: #000000; stroke-width: 0.8"/>
      </g>
     </g>
     <g id="text_10">
      <!-- 1 -->
      <g transform="translate(40.6375 156.469119)scale(0.1 -0.1)">
       <use xlink:href="#DejaVuSans-31"/>
      </g>
     </g>
    </g>
    <g id="ytick_4">
     <g id="line2d_10">
      <g>
       <use xlink:href="#m83ce94031e" x="54" y="106.297464" style="stroke: #000000; stroke-width: 0.8"/>
      </g>
     </g>
     <g id="text_11">
      <!-- 2 -->
      <g transform="translate(40.6375 110.096683)scale(0.1 -0.1)">
       <use xlink:href="#DejaVuSans-32"/>
      </g>
     </g>
    </g>
    <g id="ytick_5">
     <g id="line2d_11">
      <g>
       <use xlink:href="#m83ce94031e" x="54" y="59.925028" style="stroke: #000000; stroke-width: 0.8"/>
      </g>
     </g>
     <g id="text_12">
      <!-- 3 -->
      <g transform="translate(40.6375 63.724247)scale(0.1 -0.1)">
       <use xlink:href="#DejaVuSans-33"/>
      </g>
     </g>
    </g>
    <g id="text_13">
     <!-- $C_L$ -->
     <g transform="translate(26.178125 148.88)rotate(-90)scale(0.1 -0.1)">
      <defs>
       <path id="DejaVuSans-Oblique-4c" d="M 1075 4666 
L 1709 4666 
L 909 525 
L 3181 525 
L 3078 0 
L 172 0 
L 1075 4666 
z
" transform="scale(0.015625)"/>
      </defs>
      <use xlink:href="#DejaVuSans-Oblique-43" transform="translate(0 0.78125)"/>
      <use xlink:href="#DejaVuSans-Oblique-4c" transform="translate(69.824219 -15.625)scale(0.7)"/>
     </g>
    </g>
   </g>
   <g id="line2d_12">
    <path d="M 86.152756 242.116364 
L 83.012529 237.836853 
L 80.164258 233.535303 
L 77.62073 229.213699 
L 75.393798 224.874058 
L 73.49434 220.518423 
L 71.932231 216.148866 
L 70.716317 211.767481 
L 69.854383 207.376382 
L 69.353135 202.977701 
L 69.218182 198.573587 
L 69.454012 194.166199 
L 70.063987 189.757706 
L 71.050326 185.350284 
L 72.414101 180.946113 
L 74.155234 176.547371 
L 76.272492 172.156238 
L 78.763493 167.774884 
L 81.624709 163.405474 
L 84.851478 159.050161 
L 88.438012 154.711084 
L 92.377415 150.390365 
L 96.661696 146.090107 
L 101.281799 141.812389 
L 106.227618 137.559266 
L 111.488028 133.332764 
L 117.050916 129.134881 
L 122.903211 124.967579 
L 129.030918 120.832785 
L 135.419162 116.73239 
L 142.05222 112.668243 
" clip-path="url(#p830efd1aad)" style="fill: none; stroke: #1f77b4; stroke-width: 1.5; stroke-linecap: square"/>
   </g>
   <g id="line2d_13">
    <path d="M 94.994355 210.57537 
L 94.38095 206.169981 
L 94.107287 201.755884 
L 94.180828 197.335191 
L 94.607974 192.910029 
L 95.394045 188.482541 
L 96.543266 184.05488 
L 98.058752 179.629207 
L 99.942494 175.20769 
L 102.195358 170.792499 
L 104.817076 166.385804 
L 107.806248 161.989772 
L 111.160341 157.606565 
L 114.875698 153.238333 
L 118.947542 148.887219 
L 123.369991 144.555347 
L 128.136071 140.244826 
L 133.237735 135.957746 
L 138.665881 131.69617 
L 144.410377 127.462139 
L 150.460087 123.257665 
L 156.8029 119.084728 
L 163.425764 114.945275 
L 170.314717 110.841218 
L 177.454925 106.774431 
L 184.830723 102.746745 
L 192.425656 98.759952 
L 200.222522 94.815796 
L 208.203419 90.915977 
L 216.349793 87.062145 
L 224.642486 83.2559 
" clip-path="url(#p830efd1aad)" style="fill: none; stroke: #ff7f0e; stroke-width: 1.5; stroke-linecap: square"/>
   </g>
   <g id="line2d_14">
    <path d="M 96.192823 210.57537 
L 95.579418 206.169981 
L 95.305756 201.755884 
L 95.379296 197.335191 
L 95.806442 192.910029 
L 96.592513 188.482541 
L 97.741735 184.05488 
L 99.25722 179.629207 
L 101.140962 175.20769 
L 103.393826 170.792499 
L 106.015544 166.385804 
L 109.004716 161.989772 
L 112.358809 157.606565 
L 116.074166 153.238333 
L 120.14601 148.887219 
L 124.568459 144.555347 
L 129.33454 140.244826 
L 134.436204 135.957746 
L 139.864349 131.69617 
L 145.608845 127.462139 
L 151.658555 123.257665 
L 158.001368 119.084728 
L 164.624232 114.945275 
L 171.513185 110.841218 
L 178.653393 106.774431 
L 186.029191 102.746745 
L 193.624124 98.759952 
L 201.42099 94.815796 
L 209.401887 90.915977 
L 217.548261 87.062145 
L 225.840954 83.2559 
" clip-path="url(#p830efd1aad)" style="fill: none; stroke-dasharray: 5.55,2.4; stroke-dashoffset: 0; stroke: #2ca02c; stroke-width: 1.5"/>
   </g>
   <g id="line2d_15">
    <path d="M 148.86727 168.077378 
L 152.003142 163.531391 
L 155.507903 158.995127 
L 159.381179 154.470806 
L 163.621444 149.960646 
L 168.226025 145.466856 
L 173.191104 140.991637 
L 178.511726 136.537179 
L 184.181809 132.105654 
L 190.19416 127.699219 
L 196.540493 123.320007 
L 203.211445 118.970129 
L 210.196604 114.65167 
L 217.484532 110.366684 
L 225.062794 106.117194 
L 232.917994 101.90519 
L 241.035803 97.732622 
L 249.401001 93.601404 
L 257.997515 89.513406 
L 266.808461 85.470454 
L 275.816186 81.47433 
L 285.002321 77.526766 
L 294.34782 73.629444 
L 303.83302 69.783995 
L 313.437684 65.991996 
L 323.141063 62.254969 
L 332.921945 58.574379 
L 342.758715 54.951633 
L 352.62941 51.388079 
L 362.511781 47.885004 
L 372.38335 44.443636 
" clip-path="url(#p830efd1aad)" style="fill: none; stroke: #d62728; stroke-width: 1.5; stroke-linecap: square"/>
   </g>
   <g id="line2d_16">
    <path d="M 150.065738 168.077378 
L 153.20161 163.531391 
L 156.706371 158.995127 
L 160.579647 154.470806 
L 164.819912 149.960646 
L 169.424493 145.466856 
L 174.389573 140.991637 
L 179.710194 136.537179 
L 185.380277 132.105654 
L 191.392628 127.699219 
L 197.738961 123.320007 
L 204.409913 118.970129 
L 211.395072 114.65167 
L 218.683 110.366684 
L 226.261262 106.117194 
L 234.116462 101.90519 
L 242.234271 97.732622 
L 250.599469 93.601404 
L 259.195983 89.513406 
L 268.006929 85.470454 
L 277.014654 81.47433 
L 286.200789 77.526766 
L 295.546288 73.629444 
L 305.031488 69.783995 
L 314.636152 65.991996 
L 324.339531 62.254969 
L 334.120413 58.574379 
L 343.957183 54.951633 
L 353.827878 51.388079 
L 363.710249 47.885004 
L 373.581818 44.443636 
" clip-path="url(#p830efd1aad)" style="fill: none; stroke-dasharray: 5.55,2.4; stroke-dashoffset: 0; stroke: #9467bd; stroke-width: 1.5"/>
   </g>
   <g id="patch_3">
    <path d="M 54 252 
L 54 34.56 
" style="fill: none; stroke: #000000; stroke-width: 0.8; stroke-linejoin: miter; stroke-linecap: square"/>
   </g>
   <g id="patch_4">
    <path d="M 388.8 252 
L 388.8 34.56 
" style="fill: none; stroke: #000000; stroke-width: 0.8; stroke-linejoin: miter; stroke-linecap: square"/>
   </g>
   <g id="patch_5">
    <path d="M 54 252 
L 388.8 252 
" style="fill: none; stroke: #000000; stroke-width: 0.8; stroke-linejoin: miter; stroke-linecap: square"/>
   </g>
   <g id="patch_6">
    <path d="M 54 34.56 
L 388.8 34.56 
" style="fill: none; stroke: #000000; stroke-width: 0.8; stroke-linejoin: miter; stroke-linecap: square"/>
   </g>
   <g id="text_14">
    <!-- Drag Polar -->
    <g transform="translate(190.03875 28.56)scale(0.12 -0.12)">
     <defs>
      <path id="DejaVuSans-44" d="M 1259 4147 
L 1259 519 
L 2022 519 
Q 2988 519 3436 956 
Q 3884 1394 3884 2338 
Q 3884 3275 3436 3711 
Q 2988 4147 2022 4147 
L 1259 4147 
z
M 628 4666 
L 1925 4666 
Q 3281 4666 3915 4102 
Q 4550 3538 4550 2338 
Q 4550 1131 3912 565 
Q 3275 0 1925 0 
L 628 0 
L 628 4666 
z
" transform="scale(0.015625)"/>
      <path id="DejaVuSans-72" d="M 2631 2963 
Q 2534 3019 2420 3045 
Q 2306 3072 2169 3072 
Q 1681 3072 1420 2755 
Q 1159 2438 1159 1844 
L 1159 0 
L 581 0 
L 581 3500 
L 1159 3500 
L 1159 2956 
Q 1341 3275 1631 3429 
Q 1922 3584 2338 3584 
Q 2397 3584 2469 3576 
Q 2541 3569 2628 3553 
L 2631 2963 
z
" transform="scale(0.015625)"/>
      <path id="DejaVuSans-61" d="M 2194 1759 
Q 1497 1759 1228 1600 
Q 959 1441 959 1056 
Q 959 750 1161 570 
Q 1363 391 1709 391 
Q 2188 391 2477 730 
Q 2766 1069 2766 1631 
L 2766 1759 
L 2194 1759 
z
M 3341 1997 
L 3341 0 
L 2766 0 
L 2766 531 
Q 2569 213 2275 61 
Q 1981 -91 1556 -91 
Q 1019 -91 701 211 
Q 384 513 384 1019 
Q 384 1609 779 1909 
Q 1175 2209 1959 2209 
L 2766 2209 
L 2766 2266 
Q 2766 2663 2505 2880 
Q 2244 3097 1772 3097 
Q 1472 3097 1187 3025 
Q 903 2953 641 2809 
L 641 3341 
Q 956 3463 1253 3523 
Q 1550 3584 1831 3584 
Q 2591 3584 2966 3190 
Q 3341 2797 3341 1997 
z
" transform="scale(0.015625)"/>
      <path id="DejaVuSans-67" d="M 2906 1791 
Q 2906 2416 2648 2759 
Q 2391 3103 1925 3103 
Q 1463 3103 1205 2759 
Q 947 2416 947 1791 
Q 947 1169 1205 825 
Q 1463 481 1925 481 
Q 2391 481 2648 825 
Q 2906 1169 2906 1791 
z
M 3481 434 
Q 3481 -459 3084 -895 
Q 2688 -1331 1869 -1331 
Q 1566 -1331 1297 -1286 
Q 1028 -1241 775 -1147 
L 775 -588 
Q 1028 -725 1275 -790 
Q 1522 -856 1778 -856 
Q 2344 -856 2625 -561 
Q 2906 -266 2906 331 
L 2906 616 
Q 2728 306 2450 153 
Q 2172 0 1784 0 
Q 1141 0 747 490 
Q 353 981 353 1791 
Q 353 2603 747 3093 
Q 1141 3584 1784 3584 
Q 2172 3584 2450 3431 
Q 2728 3278 2906 2969 
L 2906 3500 
L 3481 3500 
L 3481 434 
z
" transform="scale(0.015625)"/>
      <path id="DejaVuSans-20" transform="scale(0.015625)"/>
      <path id="DejaVuSans-50" d="M 1259 4147 
L 1259 2394 
L 2053 2394 
Q 2494 2394 2734 2622 
Q 2975 2850 2975 3272 
Q 2975 3691 2734 3919 
Q 2494 4147 2053 4147 
L 1259 4147 
z
M 628 4666 
L 2053 4666 
Q 2838 4666 3239 4311 
Q 3641 3956 3641 3272 
Q 3641 2581 3239 2228 
Q 2838 1875 2053 1875 
L 1259 1875 
L 1259 0 
L 628 0 
L 628 4666 
z
" transform="scale(0.015625)"/>
      <path id="DejaVuSans-6f" d="M 1959 3097 
Q 1497 3097 1228 2736 
Q 959 2375 959 1747 
Q 959 1119 1226 758 
Q 1494 397 1959 397 
Q 2419 397 2687 759 
Q 2956 1122 2956 1747 
Q 2956 2369 2687 2733 
Q 2419 3097 1959 3097 
z
M 1959 3584 
Q 2709 3584 3137 3096 
Q 3566 2609 3566 1747 
Q 3566 888 3137 398 
Q 2709 -91 1959 -91 
Q 1206 -91 779 398 
Q 353 888 353 1747 
Q 353 2609 779 3096 
Q 1206 3584 1959 3584 
z
" transform="scale(0.015625)"/>
      <path id="DejaVuSans-6c" d="M 603 4863 
L 1178 4863 
L 1178 0 
L 603 0 
L 603 4863 
z
" transform="scale(0.015625)"/>
     </defs>
     <use xlink:href="#DejaVuSans-44"/>
     <use xlink:href="#DejaVuSans-72" x="77.001953"/>
     <use xlink:href="#DejaVuSans-61" x="118.115234"/>
     <use xlink:href="#DejaVuSans-67" x="179.394531"/>
     <use xlink:href="#DejaVuSans-20" x="242.871094"/>
     <use xlink:href="#DejaVuSans-50" x="274.658203"/>
     <use xlink:href="#DejaVuSans-6f" x="331.335938"/>
     <use xlink:href="#DejaVuSans-6c" x="392.517578"/>
     <use xlink:href="#DejaVuSans-61" x="420.300781"/>
     <use xlink:href="#DejaVuSans-72" x="481.580078"/>
    </g>
   </g>
   <g id="legend_1">
    <g id="patch_7">
     <path d="M 193.365625 247 
L 381.8 247 
Q 383.8 247 383.8 245 
L 383.8 172.609375 
Q 383.8 170.609375 381.8 170.609375 
L 193.365625 170.609375 
Q 191.365625 170.609375 191.365625 172.609375 
L 191.365625 245 
Q 191.365625 247 193.365625 247 
z
" style="fill: #ffffff; opacity: 0.8; stroke: #cccccc; stroke-linejoin: miter"/>
    </g>
    <g id="line2d_17">
     <path d="M 195.365625 178.707812 
L 205.365625 178.707812 
L 215.365625 178.707812 
" style="fill: none; stroke: #1f77b4; stroke-width: 1.5; stroke-linecap: square"/>
    </g>
    <g id="text_15">
     <!-- Clean -->
     <g transform="translate(223.365625 182.207812)scale(0.1 -0.1)">
      <defs>
       <path id="DejaVuSans-43" d="M 4122 4306 
L 4122 3641 
Q 3803 3938 3442 4084 
Q 3081 4231 2675 4231 
Q 1875 4231 1450 3742 
Q 1025 3253 1025 2328 
Q 1025 1406 1450 917 
Q 1875 428 2675 428 
Q 3081 428 3442 575 
Q 3803 722 4122 1019 
L 4122 359 
Q 3791 134 3420 21 
Q 3050 -91 2638 -91 
Q 1578 -91 968 557 
Q 359 1206 359 2328 
Q 359 3453 968 4101 
Q 1578 4750 2638 4750 
Q 3056 4750 3426 4639 
Q 3797 4528 4122 4306 
z
" transform="scale(0.015625)"/>
       <path id="DejaVuSans-65" d="M 3597 1894 
L 3597 1613 
L 953 1613 
Q 991 1019 1311 708 
Q 1631 397 2203 397 
Q 2534 397 2845 478 
Q 3156 559 3463 722 
L 3463 178 
Q 3153 47 2828 -22 
Q 2503 -91 2169 -91 
Q 1331 -91 842 396 
Q 353 884 353 1716 
Q 353 2575 817 3079 
Q 1281 3584 2069 3584 
Q 2775 3584 3186 3129 
Q 3597 2675 3597 1894 
z
M 3022 2063 
Q 3016 2534 2758 2815 
Q 2500 3097 2075 3097 
Q 1594 3097 1305 2825 
Q 1016 2553 972 2059 
L 3022 2063 
z
" transform="scale(0.015625)"/>
       <path id="DejaVuSans-6e" d="M 3513 2113 
L 3513 0 
L 2938 0 
L 2938 2094 
Q 2938 2591 2744 2837 
Q 2550 3084 2163 3084 
Q 1697 3084 1428 2787 
Q 1159 2491 1159 1978 
L 1159 0 
L 581 0 
L 581 3500 
L 1159 3500 
L 1159 2956 
Q 1366 3272 1645 3428 
Q 1925 3584 2291 3584 
Q 2894 3584 3203 3211 
Q 3513 2838 3513 2113 
z
" transform="scale(0.015625)"/>
      </defs>
      <use xlink:href="#DejaVuSans-43"/>
      <use xlink:href="#DejaVuSans-6c" x="69.824219"/>
      <use xlink:href="#DejaVuSans-65" x="97.607422"/>
      <use xlink:href="#DejaVuSans-61" x="159.130859"/>
      <use xlink:href="#DejaVuSans-6e" x="220.410156"/>
     </g>
    </g>
    <g id="line2d_18">
     <path d="M 195.365625 193.385938 
L 205.365625 193.385938 
L 215.365625 193.385938 
" style="fill: none; stroke: #ff7f0e; stroke-width: 1.5; stroke-linecap: square"/>
    </g>
    <g id="text_16">
     <!-- Takeoff w/ Landing Gear Up -->
     <g transform="translate(223.365625 196.885938)scale(0.1 -0.1)">
      <defs>
       <path id="DejaVuSans-54" d="M -19 4666 
L 3928 4666 
L 3928 4134 
L 2272 4134 
L 2272 0 
L 1638 0 
L 1638 4134 
L -19 4134 
L -19 4666 
z
" transform="scale(0.015625)"/>
       <path id="DejaVuSans-6b" d="M 581 4863 
L 1159 4863 
L 1159 1991 
L 2875 3500 
L 3609 3500 
L 1753 1863 
L 3688 0 
L 2938 0 
L 1159 1709 
L 1159 0 
L 581 0 
L 581 4863 
z
" transform="scale(0.015625)"/>
       <path id="DejaVuSans-66" d="M 2375 4863 
L 2375 4384 
L 1825 4384 
Q 1516 4384 1395 4259 
Q 1275 4134 1275 3809 
L 1275 3500 
L 2222 3500 
L 2222 3053 
L 1275 3053 
L 1275 0 
L 697 0 
L 697 3053 
L 147 3053 
L 147 3500 
L 697 3500 
L 697 3744 
Q 697 4328 969 4595 
Q 1241 4863 1831 4863 
L 2375 4863 
z
" transform="scale(0.015625)"/>
       <path id="DejaVuSans-77" d="M 269 3500 
L 844 3500 
L 1563 769 
L 2278 3500 
L 2956 3500 
L 3675 769 
L 4391 3500 
L 4966 3500 
L 4050 0 
L 3372 0 
L 2619 2869 
L 1863 0 
L 1184 0 
L 269 3500 
z
" transform="scale(0.015625)"/>
       <path id="DejaVuSans-2f" d="M 1625 4666 
L 2156 4666 
L 531 -594 
L 0 -594 
L 1625 4666 
z
" transform="scale(0.015625)"/>
       <path id="DejaVuSans-4c" d="M 628 4666 
L 1259 4666 
L 1259 531 
L 3531 531 
L 3531 0 
L 628 0 
L 628 4666 
z
" transform="scale(0.015625)"/>
       <path id="DejaVuSans-64" d="M 2906 2969 
L 2906 4863 
L 3481 4863 
L 3481 0 
L 2906 0 
L 2906 525 
Q 2725 213 2448 61 
Q 2172 -91 1784 -91 
Q 1150 -91 751 415 
Q 353 922 353 1747 
Q 353 2572 751 3078 
Q 1150 3584 1784 3584 
Q 2172 3584 2448 3432 
Q 2725 3281 2906 2969 
z
M 947 1747 
Q 947 1113 1208 752 
Q 1469 391 1925 391 
Q 2381 391 2643 752 
Q 2906 1113 2906 1747 
Q 2906 2381 2643 2742 
Q 2381 3103 1925 3103 
Q 1469 3103 1208 2742 
Q 947 2381 947 1747 
z
" transform="scale(0.015625)"/>
       <path id="DejaVuSans-69" d="M 603 3500 
L 1178 3500 
L 1178 0 
L 603 0 
L 603 3500 
z
M 603 4863 
L 1178 4863 
L 1178 4134 
L 603 4134 
L 603 4863 
z
" transform="scale(0.015625)"/>
       <path id="DejaVuSans-47" d="M 3809 666 
L 3809 1919 
L 2778 1919 
L 2778 2438 
L 4434 2438 
L 4434 434 
Q 4069 175 3628 42 
Q 3188 -91 2688 -91 
Q 1594 -91 976 548 
Q 359 1188 359 2328 
Q 359 3472 976 4111 
Q 1594 4750 2688 4750 
Q 3144 4750 3555 4637 
Q 3966 4525 4313 4306 
L 4313 3634 
Q 3963 3931 3569 4081 
Q 3175 4231 2741 4231 
Q 1884 4231 1454 3753 
Q 1025 3275 1025 2328 
Q 1025 1384 1454 906 
Q 1884 428 2741 428 
Q 3075 428 3337 486 
Q 3600 544 3809 666 
z
" transform="scale(0.015625)"/>
       <path id="DejaVuSans-55" d="M 556 4666 
L 1191 4666 
L 1191 1831 
Q 1191 1081 1462 751 
Q 1734 422 2344 422 
Q 2950 422 3222 751 
Q 3494 1081 3494 1831 
L 3494 4666 
L 4128 4666 
L 4128 1753 
Q 4128 841 3676 375 
Q 3225 -91 2344 -91 
Q 1459 -91 1007 375 
Q 556 841 556 1753 
L 556 4666 
z
" transform="scale(0.015625)"/>
       <path id="DejaVuSans-70" d="M 1159 525 
L 1159 -1331 
L 581 -1331 
L 581 3500 
L 1159 3500 
L 1159 2969 
Q 1341 3281 1617 3432 
Q 1894 3584 2278 3584 
Q 2916 3584 3314 3078 
Q 3713 2572 3713 1747 
Q 3713 922 3314 415 
Q 2916 -91 2278 -91 
Q 1894 -91 1617 61 
Q 1341 213 1159 525 
z
M 3116 1747 
Q 3116 2381 2855 2742 
Q 2594 3103 2138 3103 
Q 1681 3103 1420 2742 
Q 1159 2381 1159 1747 
Q 1159 1113 1420 752 
Q 1681 391 2138 391 
Q 2594 391 2855 752 
Q 3116 1113 3116 1747 
z
" transform="scale(0.015625)"/>
      </defs>
      <use xlink:href="#DejaVuSans-54"/>
      <use xlink:href="#DejaVuSans-61" x="44.583984"/>
      <use xlink:href="#DejaVuSans-6b" x="105.863281"/>
      <use xlink:href="#DejaVuSans-65" x="160.148438"/>
      <use xlink:href="#DejaVuSans-6f" x="221.671875"/>
      <use xlink:href="#DejaVuSans-66" x="282.853516"/>
      <use xlink:href="#DejaVuSans-66" x="318.058594"/>
      <use xlink:href="#DejaVuSans-20" x="353.263672"/>
      <use xlink:href="#DejaVuSans-77" x="385.050781"/>
      <use xlink:href="#DejaVuSans-2f" x="466.837891"/>
      <use xlink:href="#DejaVuSans-20" x="500.529297"/>
      <use xlink:href="#DejaVuSans-4c" x="532.316406"/>
      <use xlink:href="#DejaVuSans-61" x="588.029297"/>
      <use xlink:href="#DejaVuSans-6e" x="649.308594"/>
      <use xlink:href="#DejaVuSans-64" x="712.6875"/>
      <use xlink:href="#DejaVuSans-69" x="776.164062"/>
      <use xlink:href="#DejaVuSans-6e" x="803.947266"/>
      <use xlink:href="#DejaVuSans-67" x="867.326172"/>
      <use xlink:href="#DejaVuSans-20" x="930.802734"/>
      <use xlink:href="#DejaVuSans-47" x="962.589844"/>
      <use xlink:href="#DejaVuSans-65" x="1040.080078"/>
      <use xlink:href="#DejaVuSans-61" x="1101.603516"/>
      <use xlink:href="#DejaVuSans-72" x="1162.882812"/>
      <use xlink:href="#DejaVuSans-20" x="1203.996094"/>
      <use xlink:href="#DejaVuSans-55" x="1235.783203"/>
      <use xlink:href="#DejaVuSans-70" x="1308.976562"/>
     </g>
    </g>
    <g id="line2d_19">
     <path d="M 195.365625 208.064063 
L 205.365625 208.064063 
L 215.365625 208.064063 
" style="fill: none; stroke-dasharray: 5.55,2.4; stroke-dashoffset: 0; stroke: #2ca02c; stroke-width: 1.5"/>
    </g>
    <g id="text_17">
     <!-- Takeoff w/ Landing Gear Down -->
     <g transform="translate(223.365625 211.564063)scale(0.1 -0.1)">
      <use xlink:href="#DejaVuSans-54"/>
      <use xlink:href="#DejaVuSans-61" x="44.583984"/>
      <use xlink:href="#DejaVuSans-6b" x="105.863281"/>
      <use xlink:href="#DejaVuSans-65" x="160.148438"/>
      <use xlink:href="#DejaVuSans-6f" x="221.671875"/>
      <use xlink:href="#DejaVuSans-66" x="282.853516"/>
      <use xlink:href="#DejaVuSans-66" x="318.058594"/>
      <use xlink:href="#DejaVuSans-20" x="353.263672"/>
      <use xlink:href="#DejaVuSans-77" x="385.050781"/>
      <use xlink:href="#DejaVuSans-2f" x="466.837891"/>
      <use xlink:href="#DejaVuSans-20" x="500.529297"/>
      <use xlink:href="#DejaVuSans-4c" x="532.316406"/>
      <use xlink:href="#DejaVuSans-61" x="588.029297"/>
      <use xlink:href="#DejaVuSans-6e" x="649.308594"/>
      <use xlink:href="#DejaVuSans-64" x="712.6875"/>
      <use xlink:href="#DejaVuSans-69" x="776.164062"/>
      <use xlink:href="#DejaVuSans-6e" x="803.947266"/>
      <use xlink:href="#DejaVuSans-67" x="867.326172"/>
      <use xlink:href="#DejaVuSans-20" x="930.802734"/>
      <use xlink:href="#DejaVuSans-47" x="962.589844"/>
      <use xlink:href="#DejaVuSans-65" x="1040.080078"/>
      <use xlink:href="#DejaVuSans-61" x="1101.603516"/>
      <use xlink:href="#DejaVuSans-72" x="1162.882812"/>
      <use xlink:href="#DejaVuSans-20" x="1203.996094"/>
      <use xlink:href="#DejaVuSans-44" x="1235.783203"/>
      <use xlink:href="#DejaVuSans-6f" x="1312.785156"/>
      <use xlink:href="#DejaVuSans-77" x="1373.966797"/>
      <use xlink:href="#DejaVuSans-6e" x="1455.753906"/>
     </g>
    </g>
    <g id="line2d_20">
     <path d="M 195.365625 222.742188 
L 205.365625 222.742188 
L 215.365625 222.742188 
" style="fill: none; stroke: #d62728; stroke-width: 1.5; stroke-linecap: square"/>
    </g>
    <g id="text_18">
     <!-- Landing w/ Landing Gear Up -->
     <g transform="translate(223.365625 226.242188)scale(0.1 -0.1)">
      <use xlink:href="#DejaVuSans-4c"/>
      <use xlink:href="#DejaVuSans-61" x="55.712891"/>
      <use xlink:href="#DejaVuSans-6e" x="116.992188"/>
      <use xlink:href="#DejaVuSans-64" x="180.371094"/>
      <use xlink:href="#DejaVuSans-69" x="243.847656"/>
      <use xlink:href="#DejaVuSans-6e" x="271.630859"/>
      <use xlink:href="#DejaVuSans-67" x="335.009766"/>
      <use xlink:href="#DejaVuSans-20" x="398.486328"/>
      <use xlink:href="#DejaVuSans-77" x="430.273438"/>
      <use xlink:href="#DejaVuSans-2f" x="512.060547"/>
      <use xlink:href="#DejaVuSans-20" x="545.751953"/>
      <use xlink:href="#DejaVuSans-4c" x="577.539062"/>
      <use xlink:href="#DejaVuSans-61" x="633.251953"/>
      <use xlink:href="#DejaVuSans-6e" x="694.53125"/>
      <use xlink:href="#DejaVuSans-64" x="757.910156"/>
      <use xlink:href="#DejaVuSans-69" x="821.386719"/>
      <use xlink:href="#DejaVuSans-6e" x="849.169922"/>
      <use xlink:href="#DejaVuSans-67" x="912.548828"/>
      <use xlink:href="#DejaVuSans-20" x="976.025391"/>
      <use xlink:href="#DejaVuSans-47" x="1007.8125"/>
      <use xlink:href="#DejaVuSans-65" x="1085.302734"/>
      <use xlink:href="#DejaVuSans-61" x="1146.826172"/>
      <use xlink:href="#DejaVuSans-72" x="1208.105469"/>
      <use xlink:href="#DejaVuSans-20" x="1249.21875"/>
      <use xlink:href="#DejaVuSans-55" x="1281.005859"/>
      <use xlink:href="#DejaVuSans-70" x="1354.199219"/>
     </g>
    </g>
    <g id="line2d_21">
     <path d="M 195.365625 237.420313 
L 205.365625 237.420313 
L 215.365625 237.420313 
" style="fill: none; stroke-dasharray: 5.55,2.4; stroke-dashoffset: 0; stroke: #9467bd; stroke-width: 1.5"/>
    </g>
    <g id="text_19">
     <!-- Landing w/ Landing Gear Down -->
     <g transform="translate(223.365625 240.920313)scale(0.1 -0.1)">
      <use xlink:href="#DejaVuSans-4c"/>
      <use xlink:href="#DejaVuSans-61" x="55.712891"/>
      <use xlink:href="#DejaVuSans-6e" x="116.992188"/>
      <use xlink:href="#DejaVuSans-64" x="180.371094"/>
      <use xlink:href="#DejaVuSans-69" x="243.847656"/>
      <use xlink:href="#DejaVuSans-6e" x="271.630859"/>
      <use xlink:href="#DejaVuSans-67" x="335.009766"/>
      <use xlink:href="#DejaVuSans-20" x="398.486328"/>
      <use xlink:href="#DejaVuSans-77" x="430.273438"/>
      <use xlink:href="#DejaVuSans-2f" x="512.060547"/>
      <use xlink:href="#DejaVuSans-20" x="545.751953"/>
      <use xlink:href="#DejaVuSans-4c" x="577.539062"/>
      <use xlink:href="#DejaVuSans-61" x="633.251953"/>
      <use xlink:href="#DejaVuSans-6e" x="694.53125"/>
      <use xlink:href="#DejaVuSans-64" x="757.910156"/>
      <use xlink:href="#DejaVuSans-69" x="821.386719"/>
      <use xlink:href="#DejaVuSans-6e" x="849.169922"/>
      <use xlink:href="#DejaVuSans-67" x="912.548828"/>
      <use xlink:href="#DejaVuSans-20" x="976.025391"/>
      <use xlink:href="#DejaVuSans-47" x="1007.8125"/>
      <use xlink:href="#DejaVuSans-65" x="1085.302734"/>
      <use xlink:href="#DejaVuSans-61" x="1146.826172"/>
      <use xlink:href="#DejaVuSans-72" x="1208.105469"/>
      <use xlink:href="#DejaVuSans-20" x="1249.21875"/>
      <use xlink:href="#DejaVuSans-44" x="1281.005859"/>
      <use xlink:href="#DejaVuSans-6f" x="1358.007812"/>
      <use xlink:href="#DejaVuSans-77" x="1419.189453"/>
      <use xlink:href="#DejaVuSans-6e" x="1500.976562"/>
     </g>
    </g>
   </g>
  </g>
 </g>
 <defs>
  <clipPath id="p830efd1aad">
   <rect x="54" y="34.56" width="334.8" height="217.44"/>
  </clipPath>
 </defs>
</svg>
